<?xml version="1.0" standalone="no"?>
<!DOCTYPE svg PUBLIC "-//W3C//DTD SVG 20010904//EN"
 "http://www.w3.org/TR/2001/REC-SVG-20010904/DTD/svg10.dtd">
<svg version="1.0" xmlns="http://www.w3.org/2000/svg"
 width="700.000000pt" height="700.000000pt" viewBox="0 0 700.000000 700.000000"
 preserveAspectRatio="xMidYMid meet">
<metadata>
Created by potrace 1.11, written by Peter Selinger 2001-2013
</metadata>
<g transform="translate(0.000000,700.000000) scale(0.100000,-0.100000)"
fill="#000000" stroke="none">
<path d="M3278 6995 c-1 -1 -41 -6 -88 -9 -87 -7 -104 -9 -225 -27 -142 -22
-144 -22 -321 -64 -366 -89 -838 -302 -1125 -508 -31 -23 -67 -49 -79 -57 -13
-8 -59 -44 -104 -79 -543 -429 -939 -994 -1160 -1653 -31 -94 -79 -267 -91
-329 -3 -13 -11 -58 -20 -99 -29 -146 -35 -191 -52 -370 -15 -162 -8 -589 12
-711 2 -13 6 -46 10 -74 9 -76 16 -116 25 -160 5 -22 11 -53 14 -70 9 -49 13
-66 36 -155 21 -85 73 -257 89 -295 5 -11 29 -74 55 -141 55 -142 169 -372
246 -497 30 -48 60 -95 65 -105 38 -67 253 -348 320 -418 189 -198 265 -271
392 -376 78 -65 327 -248 336 -248 2 0 52 -29 111 -65 290 -174 696 -335 1011
-401 291 -61 466 -79 775 -79 329 0 553 28 855 105 198 51 452 136 480 161 5
5 15 9 22 9 20 0 235 105 363 178 188 107 447 291 575 408 82 75 131 122 148
142 18 20 8 31 -1217 1256 l-1236 1236 1235 1235 c679 679 1235 1238 1235
1240 0 9 -123 124 -225 211 -466 394 -1094 681 -1690 770 -27 4 -57 9 -65 10
-8 2 -44 6 -80 9 -36 4 -76 9 -90 12 -27 5 -536 14 -542 8z"/>
</g>
</svg>
